<svg xmlns="http://www.w3.org/2000/svg" width="23" height="23" viewBox="0 0 23 23">
    <g fill="none" fill-rule="nonzero">
        <rect width="23" height="23" fill="#0066AD" rx="4"/>
        <path fill="#FFF" d="M17.5 10.4v1.7a.849.849 0 0 1-.852.852h-3.693v3.693a.849.849 0 0 1-.852.852h-1.7a.849.849 0 0 1-.852-.852v-3.693H5.858A.849.849 0 0 1 5 12.1v-1.7a.849.849 0 0 1 .852-.852h3.693V5.855A.849.849 0 0 1 10.4 5h1.7a.849.849 0 0 1 .852.852v3.693h3.693a.849.849 0 0 1 .852.852l.003.003z"/>
    </g>
</svg>
