<svg xmlns="http://www.w3.org/2000/svg" width="16" height="18" viewBox="0 0 16 18">
    <path fill="#797979" fill-rule="nonzero" d="M2.062 16.839h2.613v-2.614H2.062v2.614zm3.194 0h2.9v-2.614h-2.9v2.614zm-3.194-3.194h2.613v-2.906H2.062v2.906zm3.194 0h2.9v-2.906h-2.9v2.906zM2.062 10.16h2.613V7.547H2.062v2.613zm6.678 6.679h2.9v-2.614h-2.9v2.614zM5.256 10.16h2.9V7.547h-2.9v2.613zm6.969 6.679h2.613v-2.614h-2.613v2.614zM8.74 13.644h2.9v-2.905h-2.9v2.905zm-3.194-7.84V3.191a.294.294 0 0 0-.29-.29h-.581a.294.294 0 0 0-.29.29v2.613c.002.16.13.288.29.29h.581a.294.294 0 0 0 .29-.29zm6.679 7.84h2.613v-2.905h-2.613v2.905zM8.74 10.16h2.9V7.547h-2.9v2.613zm3.485 0h2.613V7.547h-2.613v2.613zm.29-4.356V3.191a.294.294 0 0 0-.29-.29h-.581a.294.294 0 0 0-.29.29v2.613c.002.16.13.288.29.29h.581a.294.294 0 0 0 .29-.29zM16 5.224v11.615a1.178 1.178 0 0 1-1.162 1.162H2.062A1.178 1.178 0 0 1 .9 16.839V5.224a1.116 1.116 0 0 1 .345-.817c.213-.223.509-.348.817-.345h1.162v-.871a1.4 1.4 0 0 1 .426-1.026 1.4 1.4 0 0 1 1.025-.426h.581a1.4 1.4 0 0 1 1.025.426 1.4 1.4 0 0 1 .426 1.025v.871h3.485v-.87a1.4 1.4 0 0 1 .427-1.026 1.4 1.4 0 0 1 1.025-.426h.581a1.4 1.4 0 0 1 1.025.426 1.4 1.4 0 0 1 .426 1.025v.871h1.162c.308-.003.604.122.817.345.223.213.348.51.345.818z"/>
</svg>
