<svg xmlns="http://www.w3.org/2000/svg" width="15" height="15" viewBox="0 0 15 15">
    <path fill="#EBEBEB" fill-rule="nonzero" d="M12.539 5.918a.608.608 0 0 0-.176-.449l-.889-.879a.613.613 0 0 0-.879 0L6.611 8.565 4.404 6.358a.613.613 0 0 0-.879 0l-.889.879a.608.608 0 0 0-.176.449.6.6 0 0 0 .176.439l3.535 3.535a.6.6 0 0 0 .439.186.612.612 0 0 0 .449-.186l5.3-5.3a.6.6 0 0 0 .18-.442zM15 7.5a7.337 7.337 0 0 1-1.006 3.765 7.466 7.466 0 0 1-2.729 2.729 7.548 7.548 0 0 1-7.529 0 7.466 7.466 0 0 1-2.729-2.729 7.548 7.548 0 0 1 0-7.529 7.466 7.466 0 0 1 2.729-2.729 7.548 7.548 0 0 1 7.529 0 7.466 7.466 0 0 1 2.729 2.729A7.337 7.337 0 0 1 15 7.5z"/>
</svg>
