<svg xmlns="http://www.w3.org/2000/svg" width="15" height="17" viewBox="0 0 15 17">
    <path fill="#000" fill-rule="nonzero" d="M8.658 5.26v4.7a.35.35 0 0 1-.084.241.273.273 0 0 1-.214.094H5.383a.273.273 0 0 1-.214-.094.35.35 0 0 1-.084-.241v-.671a.35.35 0 0 1 .084-.241.273.273 0 0 1 .214-.094h2.084v-3.69a.35.35 0 0 1 .084-.241.273.273 0 0 1 .214-.094h.6a.273.273 0 0 1 .214.094.35.35 0 0 1 .079.237zm3.87 3.69a6.126 6.126 0 0 0-.679-2.862 5.41 5.41 0 0 0-1.842-2.075 4.6 4.6 0 0 0-5.079 0 5.41 5.41 0 0 0-1.842 2.075 6.369 6.369 0 0 0 0 5.723 5.41 5.41 0 0 0 1.842 2.075 4.6 4.6 0 0 0 5.079 0 5.41 5.41 0 0 0 1.842-2.075 6.126 6.126 0 0 0 .674-2.861h.005zm2.084 0a8.655 8.655 0 0 1-.958 4.041 7.627 7.627 0 0 1-2.6 2.93 6.5 6.5 0 0 1-7.172 0 7.627 7.627 0 0 1-2.6-2.93 9 9 0 0 1 0-8.081 7.627 7.627 0 0 1 2.6-2.93 6.495 6.495 0 0 1 7.172 0 7.627 7.627 0 0 1 2.6 2.93c.642 1.25.97 2.636.957 4.04h.001z"/>
</svg>
