<svg xmlns="http://www.w3.org/2000/svg" width="26" height="28" viewBox="0 0 26 28">
    <path fill="#EBEBEB" fill-rule="nonzero" d="M18.1 18.961a14.774 14.774 0 0 0-.083-1.612 8.215 8.215 0 0 0-.316-1.514 4.837 4.837 0 0 0-.6-1.3 2.8 2.8 0 0 0-.964-.874 2.748 2.748 0 0 0-1.371-.339c-.06.04-.227.143-.5.309s-.487.289-.64.369c-.15.08-.354.18-.61.3a3.3 3.3 0 0 1-2.138.256 3.407 3.407 0 0 1-.745-.248c-.256-.12-.46-.22-.61-.3-.15-.08-.364-.202-.64-.369a13.285 13.285 0 0 1-.5-.309 2.748 2.748 0 0 0-1.371.339 2.8 2.8 0 0 0-.964.874c-.263.401-.466.84-.6 1.3-.153.494-.259 1-.316 1.514a14.772 14.772 0 0 0-.083 1.612 2.7 2.7 0 0 0 .633 1.831c.38.467.95.736 1.552.731h8.679a1.976 1.976 0 0 0 1.552-.731 2.7 2.7 0 0 0 .635-1.839zm-2.611-8.953a3.918 3.918 0 1 0-7.835 0 3.918 3.918 0 0 0 7.835 0zm9.583 8.136v2.893a.464.464 0 0 1-.482.482h-1.447v3.375a2.418 2.418 0 0 1-2.411 2.414H2.411A2.418 2.418 0 0 1 0 24.897V2.719a2.321 2.321 0 0 1 .708-1.7A2.321 2.321 0 0 1 2.411.308h18.321a2.321 2.321 0 0 1 1.7.708c.46.445.717 1.06.708 1.7v3.378h1.446a.464.464 0 0 1 .482.482v2.893a.464.464 0 0 1-.482.482h-1.443v1.929h1.446a.464.464 0 0 1 .482.482v2.893a.464.464 0 0 1-.482.482h-1.446v1.929h1.446a.464.464 0 0 1 .482.482l.001-.004z"/>
</svg>
