<svg xmlns="http://www.w3.org/2000/svg" width="20" height="20" viewBox="0 0 20 20">
    <g fill="#FFF" fill-rule="evenodd">
        <path d="M3.654 10.022a.372.372 0 0 1-.012.06c.007-.019.01-.04.012-.06m-.046.13c-.005.007-.01.009-.015.015.01-.014.02-.027.028-.042-.004.009-.007.02-.013.027m-.123.11c.013-.008.024-.017.036-.026a.293.293 0 0 1-.036.025m-.267.022c.035.012.071.021.11.021.005-.004-.044.002-.11-.021m-.084-.047a.296.296 0 0 1 0 0m-.132-.211c.003.02.005.04.011.058-.005-.018-.008-.038-.011-.058m.046.127c-.007-.008-.01-.019-.015-.029.009.016.02.03.03.044-.005-.006-.01-.008-.015-.015m-.035-.654a7.037 7.037 0 0 0-.017.34L3 9.766c.001-.083.006-.173.014-.268M13.912 3.69a.871.871 0 0 0-.24-.262l-.063-.041-.034-.02-.01-.004-.021-.01-.042-.022-.084-.042c-.89-.449-1.872-.734-2.85-.763a7.193 7.193 0 0 0-2.796.423 7.285 7.285 0 0 0-2.24 1.336A7.548 7.548 0 0 0 4.06 6.036a7.633 7.633 0 0 0-.768 1.751 7.666 7.666 0 0 0-.272 1.438c-.013.202-.03.383-.03.54-.002.155-.018.299.055.39.009.011.018.015.027.025a.32.32 0 0 0 .05.048c.02.016.039.03.058.039.01.005.02.01.032.014.07.026.121.02.116.023.039 0 .075-.01.11-.021-.067.023-.116.017-.11.021-.006-.004.046.003.116-.023l.032-.014a.343.343 0 0 0 .057-.039.335.335 0 0 0 .05-.048c.01-.01.019-.014.028-.025.067-.086.059-.218.063-.361.002-.059.006-.116.009-.174a5.717 5.717 0 0 1 .404-1.796c.21-.518.512-1.081.96-1.598a5.902 5.902 0 0 1 1.68-1.37 6.02 6.02 0 0 1 2.259-.706c.2-.034.408-.026.613-.043.206.012.413 0 .62.03.414.024.824.118 1.229.225.193.072.406.128.583.214l.28.116.306.159.156.08a.88.88 0 0 0 1.139-1.241"/>
        <path d="M9.967 1.416c-4.715 0-8.55 3.837-8.55 8.553 0 4.714 3.835 8.55 8.55 8.55 4.715 0 8.552-3.836 8.552-8.55 0-4.716-3.837-8.553-8.552-8.553m0 18.519C4.47 19.935 0 15.465 0 9.969 0 4.472 4.47 0 9.967 0c5.497 0 9.968 4.472 9.968 9.97 0 5.495-4.471 9.965-9.968 9.965"/>
        <path d="M9.967 10.305a.337.337 0 0 1-.238-.576l4.712-4.713a.338.338 0 0 1 .478.478l-4.713 4.712a.338.338 0 0 1-.239.1"/>
    </g>
</svg>
