<svg xmlns="http://www.w3.org/2000/svg" width="25" height="19" viewBox="0 0 25 19">
    <path fill="#797979" fill-rule="nonzero" d="M12.483 14.25l1.565-1.565L12 10.634 10.432 12.2v.756h1.3v1.3l.751-.006zm5.938-9.716a.279.279 0 0 0-.445.013L13.253 9.27a.306.306 0 1 0 .432.432l4.723-4.723a.279.279 0 0 0 .013-.445zM19.5 12.55v2.564A3.893 3.893 0 0 1 15.614 19H4.386a3.743 3.743 0 0 1-2.746-1.14A3.743 3.743 0 0 1 .5 15.114V3.886A3.743 3.743 0 0 1 1.64 1.14 3.743 3.743 0 0 1 4.386 0h11.228a3.712 3.712 0 0 1 1.579.337c.129.055.22.172.243.31a.42.42 0 0 1-.121.391l-.661.661a.4.4 0 0 1-.432.108 2.4 2.4 0 0 0-.607-.081H4.386a2.079 2.079 0 0 0-1.525.634c-.413.399-.642.95-.634 1.525v11.227a2.079 2.079 0 0 0 .634 1.525c.399.413.95.642 1.525.634h11.228a2.165 2.165 0 0 0 2.159-2.159v-1.7a.4.4 0 0 1 .121-.3l.864-.864a.4.4 0 0 1 .472-.094c.17.055.28.218.27.396zm-1.3-9.959l3.886 3.886-9.068 9.068H9.136v-3.886L18.2 2.591zm5.992 1.781l-1.241 1.241-3.886-3.886L20.306.486a1.3 1.3 0 0 1 1.835 0l2.051 2.051a1.3 1.3 0 0 1 0 1.835z"/>
</svg>
