<svg xmlns="http://www.w3.org/2000/svg" width="23" height="28" viewBox="0 0 23 28">
    <path fill="#EBEBEB" fill-rule="nonzero" d="M19.625 15.425V4.175H11.75v19.986a24.779 24.779 0 0 0 3.744-2.408c2.754-2.156 4.131-4.265 4.131-6.328zM23 1.925v13.5a8.074 8.074 0 0 1-.589 3c-.365.94-.856 1.828-1.459 2.637-.62.81-1.314 1.56-2.074 2.241a24.142 24.142 0 0 1-2.224 1.811c-.68.48-1.389.935-2.127 1.362-.738.427-1.262.717-1.573.87-.31.153-.56.27-.747.352-.288.14-.626.14-.914 0-.187-.082-.436-.2-.747-.352-.31-.153-.835-.443-1.573-.87a28.34 28.34 0 0 1-2.127-1.362 24.142 24.142 0 0 1-2.224-1.811c-.76-.68-1.454-1.43-2.074-2.241a11.178 11.178 0 0 1-1.459-2.637 8.074 8.074 0 0 1-.589-3v-13.5A1.141 1.141 0 0 1 1.625.8h20.25A1.141 1.141 0 0 1 23 1.925z"/>
</svg>
