<svg xmlns="http://www.w3.org/2000/svg" width="20" height="21" viewBox="0 0 20 21">
    <g fill="#FFF" fill-rule="evenodd">
        <path d="M9.904 1.454c-4.8 0-8.706 3.906-8.706 8.707 0 4.8 3.905 8.706 8.706 8.706s8.707-3.905 8.707-8.706-3.906-8.707-8.707-8.707m0 18.611C4.443 20.065 0 15.622 0 10.161 0 4.699 4.443.256 9.904.256c5.462 0 9.905 4.443 9.905 9.905 0 5.461-4.443 9.904-9.905 9.904"/>
        <path d="M8.567 14.283c0-.159.03-.31.088-.453.059-.143.14-.266.246-.368a1.202 1.202 0 0 1 .832-.338c.158 0 .31.031.452.092.144.062.266.143.369.246a1.165 1.165 0 0 1 .337.82c0 .164-.03.316-.092.457a1.113 1.113 0 0 1-.614.606 1.184 1.184 0 0 1-.452.088c-.164 0-.317-.03-.46-.088a1.153 1.153 0 0 1-.372-.241 1.09 1.09 0 0 1-.246-.365 1.167 1.167 0 0 1-.088-.456zm-1.45-9.045c.174-.154.364-.3.571-.437a4.103 4.103 0 0 1 1.454-.603c.282-.059.586-.088.913-.088.445 0 .85.061 1.216.184s.679.298.94.526c.26.227.463.502.606.825.143.322.215.682.215 1.081 0 .389-.057.725-.169 1.009-.113.284-.254.53-.426.74-.171.21-.357.391-.556.545-.2.153-.389.298-.568.433a4.506 4.506 0 0 0-.464.4.79.79 0 0 0-.234.44l-.176 1.12H9.142l-.13-1.25a.34.34 0 0 1-.008-.065v-.065c0-.225.056-.421.169-.587a2.39 2.39 0 0 1 .422-.468c.169-.146.35-.288.545-.426.194-.138.376-.288.544-.449.169-.161.31-.344.422-.548.113-.205.17-.445.17-.721a1.108 1.108 0 0 0-.392-.87 1.295 1.295 0 0 0-.441-.243 1.784 1.784 0 0 0-.557-.084 2.48 2.48 0 0 0-.74.096 2.765 2.765 0 0 0-.514.214c-.14.08-.26.151-.357.215a.491.491 0 0 1-.26.096.419.419 0 0 1-.4-.23l-.498-.79z"/>
    </g>
</svg>
