
<svg width="18px" height="20px" viewBox="0 0 18 20" version="1.1" xmlns="http://www.w3.org/2000/svg" xmlns:xlink="http://www.w3.org/1999/xlink">
    <!-- Generator: Sketch 46.2 (44496) - http://www.bohemiancoding.com/sketch -->
    <desc>Created with Sketch.</desc>
    <defs></defs>
    <g id="All-Screens-" stroke="none" stroke-width="1" fill="none" fill-rule="evenodd" opacity="0.100000001">
        <g id="01-Dashboard" transform="translate(-435.000000, -18.000000)" fill="#FFFFFF">
            <g id="Dealer-Group-Work-Queue" transform="translate(0.000000, -1.000000)">
                <g id="top-nav">
                    <g id="icon--application" transform="translate(435.000000, 19.000000)">
                        <g>
                            <path d="M3.6529064,7.45049261 L4.68738916,7.45049261 L4.68738916,6.41600985 L3.6529064,6.41600985 L3.6529064,7.45049261 Z M3.0617734,8.04162562 L5.27852217,8.04162562 L5.27852217,5.82487685 L3.0617734,5.82487685 L3.0617734,8.04162562 Z" id="Fill-1"></path>
                            <polygon id="Fill-2" points="6.01743842 6.41600985 11.7164039 6.41600985 11.7164039 5.82487685 6.01743842 5.82487685"></polygon>
                            <polygon id="Fill-3" points="6.01743842 7.52438424 10.2385714 7.52438424 10.2385714 6.93325123 6.01743842 6.93325123"></polygon>
                            <path d="M3.6529064,13.6522167 L4.68738916,13.6522167 L4.68738916,12.617734 L3.6529064,12.617734 L3.6529064,13.6522167 Z M3.0617734,14.2433498 L5.27852217,14.2433498 L5.27852217,12.026601 L3.0617734,12.026601 L3.0617734,14.2433498 Z" id="Fill-4"></path>
                            <polygon id="Fill-5" points="6.01743842 12.617734 11.7164039 12.617734 11.7164039 12.026601 6.01743842 12.026601"></polygon>
                            <polygon id="Fill-6" points="6.01743842 13.7261084 10.2385714 13.7261084 10.2385714 13.1349754 6.01743842 13.1349754"></polygon>
                            <polygon id="Fill-7" points="2.12571429 11.2189655 4.34246305 11.2189655 4.34246305 9.00221675 2.12571429 9.00221675"></polygon>
                            <polygon id="Fill-8" points="5.08137931 9.59334975 10.7804926 9.59334975 10.7804926 9.00221675 5.08137931 9.00221675"></polygon>
                            <polygon id="Fill-9" points="5.08137931 10.7017241 9.3026601 10.7017241 9.3026601 10.1105911 5.08137931 10.1105911"></polygon>
                            <polygon id="Fill-10" points="3.57809852 5.91133005e-05 -2.95566503e-05 3.48360591 -2.95566503e-05 18.3250345 8.55455172 18.3250345 8.96228571 17.2905517 1.0344532 17.2905517 1.0344532 4.2857734 3.84218719 4.2857734 3.84218719 1.23803941 4.01287685 1.03439409 13.0048966 1.03439409 13.0048966 12.5425714 14.0393793 11.6066601 14.0393793 5.91133005e-05"></polygon>
                            <path d="M9.33035468,19.5031773 C9.30404926,19.5031773 9.27848276,19.4928325 9.2595665,19.4737685 C9.23606897,19.4505665 9.2260197,19.4171675 9.23207882,19.3846552 C9.35193103,18.745197 9.7660197,17.8480049 9.8931133,17.7206158 L15.8891232,11.7250493 C16.0466601,11.5672167 16.3215369,11.5669212 16.4793695,11.7250493 L17.0085813,12.25367 C17.1709951,12.4171182 17.1709951,12.6820936 17.0088768,12.8446552 L11.0127192,18.8405172 C10.8857734,18.9677586 9.98828571,19.3816995 9.34882759,19.5012562 C9.34276847,19.5025862 9.33641379,19.5031773 9.33035468,19.5031773" id="Fill-11"></path>
                        </g>
                    </g>
                </g>
            </g>
        </g>
    </g>
</svg>