<svg xmlns="http://www.w3.org/2000/svg" width="20" height="19" viewBox="0 0 20 19">
    <g fill="#FFF" fill-rule="evenodd">
        <path d="M16.246 6.004a.466.466 0 0 0 0 .67l1.763 1.747h-5.873c-.267 0-.217.26-.217.526 0 .268.097.527.364.527h5.727l-1.764 1.738a.47.47 0 0 0 .342.807.486.486 0 0 0 .343-.145l2.59-2.592a.493.493 0 0 0 .105-.532.492.492 0 0 0-.096-.142l-.008-.013-2.591-2.59a.485.485 0 0 0-.685 0"/>
        <path d="M14.21 3.684H15.945V0H.155v18.421H0h15.945v-4.21h-1.579v2.631H1.735V1.58h12.631v2.105z"/>
    </g>
</svg>
