<svg xmlns="http://www.w3.org/2000/svg" width="16" height="25" viewBox="0 0 16 25">
    <path fill="#009AE5" fill-rule="evenodd" d="M10.99 23.583l.117.002c.933 0 1.713-.165 2.09-.44.525-.387.916-1.214.764-1.44l-1.747-2.675a.807.807 0 0 0-.188-.018c-.551 0-1.398.295-1.806.435-.094.034-.173.06-.23.078-.121.04-.25.06-.382.06-.76 0-1.523-.665-1.9-1.653l-3.26-8.538c-.43-1.125-.184-2.352.572-2.854l.182-.12c1.237-.81 1.581-1.164 1.652-1.319.175-.469.343-.918-.309-2.462-.236-.559-.63-1.224-1.165-1.224h-.038c-.166.075-.637.369-1.184.838L2.606 3.587C2.09 4.03 1.56 5.009 1.472 5.683c-.01.085-1.014 8.795 7.016 17.513l2.502.387zM11.107 25l-.284-.01-3.036-.471-.167-.179C-1.07 15.05.018 5.884.07 5.498c.132-1.01.841-2.32 1.614-2.984L3.237 1.18C3.749.74 4.693.002 5.254.002L5.38 0c.724 0 1.74.362 2.469 2.088.805 1.908.625 2.72.329 3.513-.232.62-1.014 1.226-2.201 2.003l-.173.113c-.1.068-.263.574-.034 1.173l3.26 8.537c.175.46.457.698.57.738l.157-.055c.516-.178 1.48-.513 2.27-.513.768 0 1.147.324 1.33.595l1.784 2.731c.735 1.099-.187 2.687-1.108 3.362-.804.59-2.035.715-2.926.715z"/>
</svg>
