<svg xmlns="http://www.w3.org/2000/svg" width="10" height="12" viewBox="0 0 10 12">
    <path fill="#FFF" fill-rule="evenodd" d="M4.76 7.182A2.424 2.424 0 0 1 2.34 4.76a2.424 2.424 0 0 1 2.42-2.422A2.424 2.424 0 0 1 7.184 4.76 2.424 2.424 0 0 1 4.76 7.182zm0-6.273A3.856 3.856 0 0 0 .91 4.76c0 1.647 2.538 4.605 3.85 5.958 1.314-1.353 3.853-4.31 3.853-5.958A3.856 3.856 0 0 0 4.76.91zM4.76 12l-.317-.313C3.987 11.242 0 7.257 0 4.76A4.765 4.765 0 0 1 4.76 0a4.765 4.765 0 0 1 4.762 4.76c0 2.497-3.988 6.482-4.443 6.927L4.761 12z" opacity=".2"/>
</svg>
