<svg xmlns="http://www.w3.org/2000/svg" width="37" height="28" viewBox="0 0 37 28">
    <path fill="#2562B7" fill-rule="nonzero" d="M18.467 18.231a12.486 12.486 0 0 0-.158-2.065 8.326 8.326 0 0 0-.519-1.811 3.089 3.089 0 0 0-1.063-1.371 2.862 2.862 0 0 0-1.705-.5 41.333 41.333 0 0 1-1.186.694c-.158.088-.366.19-.624.308a3.485 3.485 0 0 1-2.989 0 8.882 8.882 0 0 1-.624-.308 41.333 41.333 0 0 1-1.186-.694 2.862 2.862 0 0 0-1.705.5 3.089 3.089 0 0 0-1.063 1.371 8.326 8.326 0 0 0-.519 1.811c-.11.683-.163 1.373-.158 2.065-.024.683.208 1.35.65 1.872.392.479.98.754 1.6.747h9a2.04 2.04 0 0 0 1.6-.747 2.749 2.749 0 0 0 .649-1.872zm-2.76-9.141a3.991 3.991 0 1 0-7.982.002 3.991 3.991 0 0 0 7.982-.002zm16.26 8.947v-1.125a.542.542 0 0 0-.562-.562H21.28a.542.542 0 0 0-.562.563v1.125a.542.542 0 0 0 .563.563h10.124a.542.542 0 0 0 .563-.562l-.001-.002zm0-4.57v-.984a.63.63 0 0 0-.633-.633H21.35a.63.63 0 0 0-.633.633v.984a.63.63 0 0 0 .633.633h9.984a.63.63 0 0 0 .633-.633zm0-4.43V7.912a.542.542 0 0 0-.562-.562H21.28a.542.542 0 0 0-.562.563v1.125a.542.542 0 0 0 .563.562h10.124a.542.542 0 0 0 .563-.562l-.001-.001zm4.5-5.625v21.375a2.821 2.821 0 0 1-2.812 2.813h-6.188v-1.687a.542.542 0 0 0-.562-.562H25.78a.542.542 0 0 0-.562.563V27.6H11.717v-1.687a.542.542 0 0 0-.563-.562H10.03a.542.542 0 0 0-.563.563V27.6H3.28a2.708 2.708 0 0 1-1.986-.826 2.708 2.708 0 0 1-.827-1.986V3.413a2.708 2.708 0 0 1 .826-1.986A2.708 2.708 0 0 1 3.28.6h30.375a2.821 2.821 0 0 1 2.812 2.813v-.001z"/>
</svg>
