<svg xmlns="http://www.w3.org/2000/svg" width="21" height="22" viewBox="0 0 21 22">
    <path fill="#989898" fill-rule="evenodd" d="M19.99 19.281l-4.197-4.379a9.418 9.418 0 0 0 1.891-5.68c0-5.087-3.966-9.226-8.841-9.226C3.966-.004 0 4.135 0 9.222c0 5.085 3.966 9.224 8.843 9.224 1.91 0 3.676-.643 5.124-1.722l4.236 4.42c.247.258.57.386.894.386.323 0 .646-.128.893-.385a1.36 1.36 0 0 0 0-1.864zM2.525 9.221c0-3.633 2.835-6.589 6.318-6.589 3.482 0 6.315 2.956 6.315 6.59 0 3.633-2.833 6.588-6.315 6.588-3.483 0-6.318-2.955-6.318-6.588z"/>
</svg>
