<svg xmlns="http://www.w3.org/2000/svg" width="34" height="27" viewBox="0 0 34 27">
    <path fill="#D7D7D7" fill-rule="nonzero" d="M29.086 15.552v10.1A1.366 1.366 0 0 1 27.739 27h-8.081v-8.081h-5.387V27H6.189a1.366 1.366 0 0 1-1.347-1.347v-10.1a.289.289 0 0 1 .011-.063.287.287 0 0 0 .011-.063l12.1-9.975 12.1 9.975c.016.04.024.082.022.125zm4.693-1.452l-1.3 1.557a.716.716 0 0 1-.442.232h-.063a.647.647 0 0 1-.442-.147L16.964 3.6 2.401 15.741a.782.782 0 0 1-.505.147.716.716 0 0 1-.442-.232l-1.3-1.557a.682.682 0 0 1-.147-.495.611.611 0 0 1 .231-.452L15.369.546a2.611 2.611 0 0 1 3.2 0l5.135 4.293v-4.1a.648.648 0 0 1 .673-.673h4.034a.648.648 0 0 1 .673.673v8.586l4.609 3.83c.139.11.223.275.231.452a.682.682 0 0 1-.146.493h.001z"/>
</svg>
