
<svg width="27px" height="27px" viewBox="0 0 27 27" version="1.1" xmlns="http://www.w3.org/2000/svg" xmlns:xlink="http://www.w3.org/1999/xlink">
    <!-- Generator: Sketch 46.2 (44496) - http://www.bohemiancoding.com/sketch -->
    <desc>Created with Sketch.</desc>
    <defs></defs>
    <g id="All-Screens-" stroke="none" stroke-width="1" fill="none" fill-rule="evenodd">
        <g id="03-Application-from-Quotation" transform="translate(-1152.000000, -263.000000)" fill-rule="nonzero" fill="#0066ad">
            <g id="03-1-Appl-from-Quotation-Applicant">
                <g id="ContentTabs" transform="translate(70.000000, 249.000000)">
                    <g id="Clock" transform="translate(1022.000000, 0.000000)">
                        <path d="M75.75,21.313 L75.75,29.188 C75.755958,29.3388892 75.6986974,29.4854231 75.5920144,29.5922959 C75.4853315,29.6991687 75.3388996,29.7566898 75.188,29.751 L69.563,29.751 C69.4122809,29.7566722 69.2660146,29.6992852 69.1593647,29.5926353 C69.0527148,29.4859854 68.9953278,29.3397191 69.001,29.189 L69.001,28.064 C68.9953102,27.9131004 69.0528313,27.7666685 69.1597041,27.6599856 C69.2665769,27.5533026 69.4131108,27.496042 69.564,27.502 L73.5,27.502 L73.5,21.315 C73.4943102,21.1641004 73.5518313,21.0176685 73.6587041,20.9109856 C73.7655769,20.8043026 73.9121108,20.747042 74.063,20.753 L75.188,20.753 C75.3390697,20.747024 75.4857695,20.8044186 75.5926754,20.9113246 C75.6995814,21.0182305 75.756976,21.1649303 75.751,21.316 L75.75,21.313 Z M83.063,27.501 C83.076202,25.814553 82.632872,24.1559527 81.78,22.701 C80.9445838,21.2564052 79.7445948,20.0564162 78.3,19.221 C75.328923,17.5092132 71.671077,17.5092132 68.7,19.221 C67.2554052,20.0564162 66.0554162,21.2564052 65.22,22.701 C63.5082132,25.672077 63.5082132,29.329923 65.22,32.301 C66.0554162,33.7455948 67.2554052,34.9455838 68.7,35.781 C71.671077,37.4927868 75.328923,37.4927868 78.3,35.781 C79.7445948,34.9455838 80.9445838,33.7455948 81.78,32.301 C82.6330464,30.8457553 83.0763828,29.1867858 83.063,27.5 L83.063,27.501 Z M87.001,27.501 C87.0191331,29.8816147 86.393396,32.2228595 85.19,34.277 C84.0113061,36.3170138 82.3170138,38.0113061 80.277,39.19 C76.0818714,41.604224 70.9191286,41.604224 66.724,39.19 C64.6839862,38.0113061 62.9896939,36.3170138 61.811,34.277 C59.396776,30.0818714 59.396776,24.9191286 61.811,20.724 C62.9896939,18.6839862 64.6839862,16.9896939 66.724,15.811 C70.9191286,13.396776 76.0818714,13.396776 80.277,15.811 C82.3170138,16.9896939 84.0113061,18.6839862 85.19,20.724 C86.3930463,22.77824 87.0184362,25.1194786 87,27.5 L87.001,27.501 Z" id="clock-o"></path>
                    </g>
                </g>
            </g>
        </g>
    </g>
</svg>