<svg xmlns="http://www.w3.org/2000/svg" width="31" height="27" viewBox="0 0 31 27">
    <path fill="#0066AD" fill-rule="nonzero" d="M24.468 0H5.906a2.538 2.538 0 0 0-2.4 1.7L0 11.812v13.5A1.692 1.692 0 0 0 1.688 27h1.688a1.692 1.692 0 0 0 1.688-1.688V23.62h20.249v1.69A1.692 1.692 0 0 0 27 26.998h1.688a1.692 1.692 0 0 0 1.688-1.688v-13.5L26.865 1.702A2.522 2.522 0 0 0 24.468 0zM5.906 18.562a2.528 2.528 0 1 1 .01-5.056 2.528 2.528 0 0 1-.01 5.056zm18.563 0a2.528 2.528 0 1 1 .006-5.056 2.528 2.528 0 0 1-.006 5.056zM3.375 10.12l2.531-7.592h18.562L27 10.12H3.375z"/>
</svg>
