
<svg width="24px" height="27px" viewBox="0 0 24 27" version="1.1" xmlns="http://www.w3.org/2000/svg" xmlns:xlink="http://www.w3.org/1999/xlink">
    <!-- Generator: Sketch 46.2 (44496) - http://www.bohemiancoding.com/sketch -->
    <desc>Created with Sketch.</desc>
    <defs></defs>
    <g id="All-Screens-" stroke="none" stroke-width="1" fill="none" fill-rule="evenodd">
        <g id="03-Application-from-Quotation" transform="translate(-1025.000000, -263.000000)" fill-rule="nonzero" fill="#0066AD">
            <g id="03-1-Appl-from-Quotation-Applicant">
                <g id="ContentTabs" transform="translate(70.000000, 249.000000)">
                    <g id="File_Text" transform="translate(879.000000, 0.000000)">
                        <g id="Group_51" transform="translate(48.000000, 13.333000)">
                            <path d="M50.118,7.839 C50.2778005,8.00392002 50.4192903,8.18564395 50.54,8.381 L43.428,8.381 L43.428,1.267 C43.6233516,1.38771609 43.8050748,1.52920542 43.97,1.689 L50.118,7.839 Z M42.946,10.31 L51.146,10.31 L51.146,26.221 C51.1476033,26.6049923 50.9957723,26.9737204 50.7242463,27.2452463 C50.4527204,27.5167723 50.0839923,27.6686033 49.7,27.667 L29.45,27.667 C29.0653164,27.6696749 28.6955554,27.518317 28.423161,27.246674 C28.1507665,26.975031 27.9983878,26.6056896 28,26.221 L28,2.113 C27.9936553,1.72782546 28.1463037,1.35705618 28.422,1.088 C28.6909861,0.812925719 29.0613192,0.660669649 29.446,0.667 L41.5,0.667 L41.5,8.867 C41.4983967,9.25099232 41.6502277,9.61972038 41.9217537,9.89124632 C42.1932796,10.1627723 42.5620077,10.3146033 42.946,10.313 L42.946,10.31 Z M45.357,21.399 L45.357,20.435 C45.3621227,20.3056632 45.3129877,20.1800656 45.2214611,20.0885389 C45.1299344,19.9970123 45.0043368,19.9478773 44.875,19.953 L34.268,19.953 C34.1386632,19.9478773 34.0130656,19.9970123 33.9215389,20.0885389 C33.8300123,20.1800656 33.7808773,20.3056632 33.786,20.435 L33.786,21.399 C33.7808773,21.5283368 33.8300123,21.6539344 33.9215389,21.7454611 C34.0130656,21.8369877 34.1386632,21.8861227 34.268,21.881 L44.875,21.881 C45.0043368,21.8861227 45.1299344,21.8369877 45.2214611,21.7454611 C45.3129877,21.6539344 45.3621227,21.5283368 45.357,21.399 L45.357,21.399 Z M45.357,17.542 L45.357,16.578 C45.3621227,16.4486632 45.3129877,16.3230656 45.2214611,16.2315389 C45.1299344,16.1400123 45.0043368,16.0908773 44.875,16.096 L34.268,16.096 C34.1386632,16.0908773 34.0130656,16.1400123 33.9215389,16.2315389 C33.8300123,16.3230656 33.7808773,16.4486632 33.786,16.578 L33.786,17.542 C33.7808773,17.6713368 33.8300123,17.7969344 33.9215389,17.8884611 C34.0130656,17.9799877 34.1386632,18.0291227 34.268,18.024 L44.875,18.024 C45.0043368,18.0291227 45.1299344,17.9799877 45.2214611,17.8884611 C45.3129877,17.7969344 45.3621227,17.6713368 45.357,17.542 L45.357,17.542 Z M45.357,13.685 L45.357,12.721 C45.3621227,12.5916632 45.3129877,12.4660656 45.2214611,12.3745389 C45.1299344,12.2830123 45.0043368,12.2338773 44.875,12.239 L34.268,12.239 C34.1386632,12.2338773 34.0130656,12.2830123 33.9215389,12.3745389 C33.8300123,12.4660656 33.7808773,12.5916632 33.786,12.721 L33.786,13.685 C33.7808773,13.8143368 33.8300123,13.9399344 33.9215389,14.0314611 C34.0130656,14.1229877 34.1386632,14.1721227 34.268,14.167 L44.875,14.167 C45.0043368,14.1721227 45.1299344,14.1229877 45.2214611,14.0314611 C45.3129877,13.9399344 45.3621227,13.8143368 45.357,13.685 L45.357,13.685 Z" id="file-text"></path>
                        </g>
                    </g>
                </g>
            </g>
        </g>
    </g>
</svg>