
<svg width="30px" height="27px" viewBox="0 0 30 27" version="1.1" xmlns="http://www.w3.org/2000/svg" xmlns:xlink="http://www.w3.org/1999/xlink">
    <!-- Generator: Sketch 46.2 (44496) - http://www.bohemiancoding.com/sketch -->
    <desc>Created with Sketch.</desc>
    <defs></defs>
    <g id="All-Screens-" stroke="none" stroke-width="1" fill="none" fill-rule="evenodd">
        <g id="03-Application-from-Quotation" transform="translate(-875.000000, -263.000000)" fill-rule="nonzero" fill="#D9D9D9">
            <g id="03-1-Appl-from-Quotation-Applicant">
                <g id="ContentTabs" transform="translate(70.000000, 249.000000)">
                    <g id="Bank" transform="translate(733.000000, 0.000000)">
                        <g id="Group_50" transform="translate(44.000000, 14.000000)">
                            <path d="M43.45,0 L57.962,5.786 L57.962,7.714 L56.027,7.714 C56.0274569,7.9743875 55.9142396,8.22200471 55.717,8.392 C55.5192585,8.57918926 55.2562629,8.68180419 54.984,8.678 L31.915,8.678 C31.6427371,8.68180419 31.3797415,8.57918926 31.182,8.392 C30.9847604,8.22200471 30.8715431,7.9743875 30.872,7.714 L28.937,7.714 L28.937,5.786 L43.45,0 Z M32.807,9.643 L36.677,9.643 L36.677,21.214 L38.612,21.214 L38.612,9.643 L42.482,9.643 L42.482,21.214 L44.417,21.214 L44.417,9.643 L48.287,9.643 L48.287,21.214 L50.222,21.214 L50.222,9.643 L54.092,9.643 L54.092,21.214 L54.984,21.214 C55.2562629,21.2101958 55.5192585,21.3128107 55.717,21.5 C55.9142396,21.6699953 56.0274569,21.9176125 56.027,22.178 L56.027,23.142 L30.872,23.142 L30.872,22.178 C30.8715431,21.9176125 30.9847604,21.6699953 31.182,21.5 C31.3797415,21.3128107 31.6427371,21.2101958 31.915,21.214 L32.807,21.214 L32.807,9.643 Z M56.919,24.107 C57.1912629,24.1031958 57.4542585,24.2058107 57.652,24.393 C57.8492396,24.5629953 57.9624569,24.8106125 57.962,25.071 L57.962,27 L28.937,27 L28.937,25.071 C28.9365431,24.8106125 29.0497604,24.5629953 29.247,24.393 C29.4447415,24.2058107 29.7077371,24.1031958 29.98,24.107 L56.919,24.107 Z" id="bank-2"></path>
                        </g>
                    </g>
                </g>
            </g>
        </g>
    </g>
</svg>