<svg xmlns="http://www.w3.org/2000/svg" width="23" height="27" viewBox="0 0 23 27">
    <path fill="#D7D7D7" fill-rule="nonzero" d="M22.9 22.342a5.094 5.094 0 0 1-1.1 3.287A3.292 3.292 0 0 1 19.156 27H4.144a3.292 3.292 0 0 1-2.646-1.371 5.094 5.094 0 0 1-1.1-3.287c-.003-.942.047-1.884.149-2.821.104-.906.29-1.8.554-2.672a8.9 8.9 0 0 1 1.028-2.3 4.921 4.921 0 0 1 1.652-1.564 4.566 4.566 0 0 1 2.364-.606 7.852 7.852 0 0 0 11 0 4.566 4.566 0 0 1 2.364.606c.665.385 1.231.92 1.652 1.564a8.9 8.9 0 0 1 1.028 2.3c.265.872.45 1.766.554 2.672.105.937.157 1.878.157 2.821zM18.4 6.75a6.752 6.752 0 1 1-1.978-4.772A6.5 6.5 0 0 1 18.4 6.75z"/>
</svg>
