
<svg width="30px" height="27px" viewBox="0 0 30 27" version="1.1" xmlns="http://www.w3.org/2000/svg" xmlns:xlink="http://www.w3.org/1999/xlink">
    <!-- Generator: Sketch 46.2 (44496) - http://www.bohemiancoding.com/sketch -->
    <desc>Created with Sketch.</desc>
    <defs></defs>
    <g id="All-Screens-" stroke="none" stroke-width="1" fill="none" fill-rule="evenodd">
        <g id="03-Application-from-Quotation" transform="translate(-730.000000, -263.000000)" fill-rule="nonzero" fill="#0066AD">
            <g id="03-1-Appl-from-Quotation-Applicant">
                <g id="ContentTabs" transform="translate(70.000000, 249.000000)">
                    <g id="Users" transform="translate(587.000000, 0.000000)">
                        <g id="Group_49" transform="translate(44.000000, 14.000000)">
                            <path d="M38.364,13.5 C36.8116022,13.5139437 35.3468294,14.2215687 34.371,15.429 L32.352,15.429 C31.6115119,15.4539094 30.8826389,15.2400505 30.273,14.819 C29.7066969,14.4055634 29.3888738,13.7330135 29.429,13.033 C29.429,9.487 30.0516667,7.714 31.297,7.714 C31.5278291,7.79118325 31.7479228,7.89736587 31.952,8.03 C32.4235848,8.28264382 32.9148576,8.4966769 33.421,8.67 C33.9954184,8.8809284 34.6020887,8.99055539 35.214,8.994 C35.8954465,8.99173854 36.571619,8.87442262 37.214,8.647 C37.1670168,8.97630701 37.1419616,9.30837144 37.139,9.641 C37.1352395,11.0235552 37.5635247,12.3727412 38.364,13.5 L38.364,13.5 Z M54.501,23.1 C54.5562479,24.1646697 54.1563305,25.2026372 53.401,25.955 C52.6033801,26.6764756 51.5522405,27.0522679 50.478,27 L37.309,27 C36.2344803,27.0517248 35.1833046,26.6752004 34.386,25.953 C33.6306695,25.2006372 33.2307521,24.1626697 33.286,23.098 C33.286,22.5646667 33.3036667,22.045 33.339,21.539 C33.3797398,20.9882691 33.4501756,20.4401385 33.55,19.897 C33.6472337,19.3437968 33.7808571,18.7976108 33.95,18.262 C34.1145313,17.7512089 34.3316976,17.2588982 34.598,16.793 C34.8484211,16.3431247 35.1630599,15.9321404 35.532,15.573 C35.9048159,15.2231075 36.3423243,14.949325 36.82,14.767 C37.3559033,14.5613491 37.926041,14.4595388 38.5,14.467 C38.735978,14.5293012 38.9565722,14.6395984 39.148,14.791 C39.4813333,15.007 39.848,15.248 40.248,15.514 C42.4864296,16.8811347 45.3015704,16.8811347 47.54,15.514 C47.94,15.2473333 48.3066667,15.0063333 48.64,14.791 C48.8314278,14.6395984 49.052022,14.5293012 49.288,14.467 C49.861959,14.4595388 50.4320967,14.5613491 50.968,14.767 C51.4456642,14.9493481 51.8831684,15.2231279 52.256,15.573 C52.6249401,15.9321404 52.9395789,16.3431247 53.19,16.793 C53.4563088,17.258895 53.6734754,17.7512063 53.838,18.262 C54.0071401,18.7976116 54.1407635,19.3437974 54.238,19.897 C54.3378244,20.4401385 54.4082602,20.9882691 54.449,21.539 C54.483,22.0463333 54.5,22.5666667 54.5,23.1 L54.501,23.1 Z M39.072,3.857 C39.0880144,4.88303136 38.6790341,5.87001295 37.942,6.584 C37.2188275,7.30738271 36.237869,7.71379256 35.215,7.71379256 C34.192131,7.71379256 33.2111725,7.30738271 32.488,6.584 C31.7509659,5.87001295 31.3419856,4.88303136 31.358,3.857 C31.3419856,2.83096864 31.7509659,1.84398705 32.488,1.13 C33.2111725,0.406617291 34.192131,0.000207438916 35.215,0.000207438916 C36.237869,0.000207438916 37.2188275,0.406617291 37.942,1.13 C38.6790341,1.84398705 39.0880144,2.83096864 39.072,3.857 Z M49.679,9.643 C49.7018545,11.1829658 49.0865175,12.6637561 47.979,13.734 C46.8942413,14.8190741 45.4228035,15.4286888 43.8885,15.4286888 C42.3541965,15.4286888 40.8827587,14.8190741 39.798,13.734 C38.6904825,12.6637561 38.0751455,11.1829658 38.098,9.643 C38.0751455,8.10303418 38.6904825,6.62224386 39.798,5.552 C40.8827587,4.46692594 42.3541965,3.85731116 43.8885,3.85731116 C45.4228035,3.85731116 46.8942413,4.46692594 47.979,5.552 C49.0865175,6.62224386 49.7018545,8.10303418 49.679,9.643 L49.679,9.643 Z M58.358,13.033 C58.3977795,13.7326673 58.0799944,14.4047602 57.514,14.818 C56.9043611,15.2390505 56.1754881,15.4529094 55.435,15.428 L53.416,15.428 C52.4399754,14.220943 50.9752316,13.5136988 49.423,13.5 C50.2213024,12.3727022 50.6478043,11.0243268 50.643,9.643 C50.6400384,9.31037144 50.6149832,8.97830701 50.568,8.649 C51.210381,8.87642262 51.8865535,8.99373854 52.568,8.996 C53.1799113,8.99255539 53.7865816,8.8829284 54.361,8.672 C54.8671424,8.4986769 55.3584152,8.28464382 55.83,8.032 C56.0340772,7.89936587 56.2541709,7.79318325 56.485,7.716 C57.7336667,7.71466667 58.358,9.487 58.358,13.033 L58.358,13.033 Z M56.429,3.857 C56.4450144,4.88303136 56.0360341,5.87001295 55.299,6.584 C54.5758275,7.30738271 53.594869,7.71379256 52.572,7.71379256 C51.549131,7.71379256 50.5681725,7.30738271 49.845,6.584 C49.1079659,5.87001295 48.6989856,4.88303136 48.715,3.857 C48.6989856,2.83096864 49.1079659,1.84398705 49.845,1.13 C50.5681725,0.406617291 51.549131,0.000207438916 52.572,0.000207438916 C53.594869,0.000207438916 54.5758275,0.406617291 55.299,1.13 C56.0360341,1.84398705 56.4450144,2.83096864 56.429,3.857 Z" id="users-2"></path>
                        </g>
                    </g>
                </g>
            </g>
        </g>
    </g>
</svg>