
<svg width="22px" height="27px" viewBox="0 0 22 27" version="1.1" xmlns="http://www.w3.org/2000/svg" xmlns:xlink="http://www.w3.org/1999/xlink">
    <!-- Generator: Sketch 46.2 (44496) - http://www.bohemiancoding.com/sketch -->
    <desc>Created with Sketch.</desc>
    <defs></defs>
    <g id="All-Screens-" stroke="none" stroke-width="1" fill="none" fill-rule="evenodd">
        <g id="03-Application-from-Quotation" transform="translate(-589.000000, -263.000000)" fill-rule="nonzero" fill="#2562B7">
            <g id="03-1-Appl-from-Quotation-Applicant">
                <g id="ContentTabs" transform="translate(70.000000, 249.000000)">
                    <g id="Building" transform="translate(441.000000, 0.000000)">
                        <g id="Group_48" transform="translate(48.000000, 13.909000)">
                            <path d="M50.25,0.091 C50.5057792,0.0887092585 50.7511375,0.192208475 50.928,0.377 C51.1127915,0.553862505 51.2162907,0.799220787 51.214,1.055 L51.214,26.127 C51.2064765,26.6562548 50.7792548,27.0834765 50.25,27.091 L30.964,27.091 C30.4347452,27.0834765 30.0075235,26.6562548 30,26.127 L30,1.055 C29.9977093,0.799220787 30.1012085,0.553862505 30.286,0.377 C30.4628625,0.192208475 30.7082208,0.0887092585 30.964,0.091 L50.25,0.091 Z M37.714,4.43 L37.714,5.391 C37.7088773,5.52033683 37.7580123,5.64593441 37.8495389,5.73746107 C37.9410656,5.82898773 38.0666632,5.87812272 38.196,5.873 L39.16,5.873 C39.2893368,5.87812272 39.4149344,5.82898773 39.5064611,5.73746107 C39.5979877,5.64593441 39.6471227,5.52033683 39.642,5.391 L39.642,4.43 C39.6471227,4.30066317 39.5979877,4.17506559 39.5064611,4.08353893 C39.4149344,3.99201227 39.2893368,3.94287728 39.16,3.948 L38.2,3.948 C38.0706632,3.94287728 37.9450656,3.99201227 37.8535389,4.08353893 C37.7620123,4.17506559 37.7128773,4.30066317 37.718,4.43 L37.714,4.43 Z M37.714,8.287 L37.714,9.251 C37.7088773,9.38033683 37.7580123,9.50593441 37.8495389,9.59746107 C37.9410656,9.68898773 38.0666632,9.73812272 38.196,9.733 L39.16,9.733 C39.2893368,9.73812272 39.4149344,9.68898773 39.5064611,9.59746107 C39.5979877,9.50593441 39.6471227,9.38033683 39.642,9.251 L39.642,8.291 C39.6471227,8.16166317 39.5979877,8.03606559 39.5064611,7.94453893 C39.4149344,7.85301227 39.2893368,7.80387728 39.16,7.809 L38.2,7.809 C38.0706632,7.80387728 37.9450656,7.85301227 37.8535389,7.94453893 C37.7620123,8.03606559 37.7128773,8.16166317 37.718,8.291 L37.714,8.287 Z M37.714,12.144 L37.714,13.108 C37.7088773,13.2373368 37.7580123,13.3629344 37.8495389,13.4544611 C37.9410656,13.5459877 38.0666632,13.5951227 38.196,13.59 L39.16,13.59 C39.2893368,13.5951227 39.4149344,13.5459877 39.5064611,13.4544611 C39.5979877,13.3629344 39.6471227,13.2373368 39.642,13.108 L39.642,12.144 C39.6471227,12.0146632 39.5979877,11.8890656 39.5064611,11.7975389 C39.4149344,11.7060123 39.2893368,11.6568773 39.16,11.662 L38.2,11.662 C38.0706632,11.6568773 37.9450656,11.7060123 37.8535389,11.7975389 C37.7620123,11.8890656 37.7128773,12.0146632 37.718,12.144 L37.714,12.144 Z M37.714,16.001 L37.714,16.965 C37.7088773,17.0943368 37.7580123,17.2199344 37.8495389,17.3114611 C37.9410656,17.4029877 38.0666632,17.4521227 38.196,17.447 L39.16,17.447 C39.2893368,17.4521227 39.4149344,17.4029877 39.5064611,17.3114611 C39.5979877,17.2199344 39.6471227,17.0943368 39.642,16.965 L39.642,16.001 C39.6471227,15.8716632 39.5979877,15.7460656 39.5064611,15.6545389 C39.4149344,15.5630123 39.2893368,15.5138773 39.16,15.519 L38.2,15.519 C38.0706632,15.5138773 37.9450656,15.5630123 37.8535389,15.6545389 C37.7620123,15.7460656 37.7128773,15.8716632 37.718,16.001 L37.714,16.001 Z M35.785,20.822 L35.785,19.858 C35.7901227,19.7286632 35.7409877,19.6030656 35.6494611,19.5115389 C35.5579344,19.4200123 35.4323368,19.3708773 35.303,19.376 L34.339,19.376 C34.2096632,19.3708773 34.0840656,19.4200123 33.9925389,19.5115389 C33.9010123,19.6030656 33.8518773,19.7286632 33.857,19.858 L33.857,20.822 C33.8518773,20.9513368 33.9010123,21.0769344 33.9925389,21.1684611 C34.0840656,21.2599877 34.2096632,21.3091227 34.339,21.304 L35.303,21.304 C35.4323368,21.3091227 35.5579344,21.2599877 35.6494611,21.1684611 C35.7409877,21.0769344 35.7901227,20.9513368 35.785,20.822 L35.785,20.822 Z M35.785,16.965 L35.785,16.001 C35.7901227,15.8716632 35.7409877,15.7460656 35.6494611,15.6545389 C35.5579344,15.5630123 35.4323368,15.5138773 35.303,15.519 L34.339,15.519 C34.2096632,15.5138773 34.0840656,15.5630123 33.9925389,15.6545389 C33.9010123,15.7460656 33.8518773,15.8716632 33.857,16.001 L33.857,16.965 C33.8518773,17.0943368 33.9010123,17.2199344 33.9925389,17.3114611 C34.0840656,17.4029877 34.2096632,17.4521227 34.339,17.447 L35.303,17.447 C35.4323368,17.4521227 35.5579344,17.4029877 35.6494611,17.3114611 C35.7409877,17.2199344 35.7901227,17.0943368 35.785,16.965 L35.785,16.965 Z M35.785,13.108 L35.785,12.144 C35.7901227,12.0146632 35.7409877,11.8890656 35.6494611,11.7975389 C35.5579344,11.7060123 35.4323368,11.6568773 35.303,11.662 L34.339,11.662 C34.2096632,11.6568773 34.0840656,11.7060123 33.9925389,11.7975389 C33.9010123,11.8890656 33.8518773,12.0146632 33.857,12.144 L33.857,13.108 C33.8518773,13.2373368 33.9010123,13.3629344 33.9925389,13.4544611 C34.0840656,13.5459877 34.2096632,13.5951227 34.339,13.59 L35.303,13.59 C35.4323368,13.5951227 35.5579344,13.5459877 35.6494611,13.4544611 C35.7409877,13.3629344 35.7901227,13.2373368 35.785,13.108 L35.785,13.108 Z M35.785,9.251 L35.785,8.291 C35.7901227,8.16166317 35.7409877,8.03606559 35.6494611,7.94453893 C35.5579344,7.85301227 35.4323368,7.80387728 35.303,7.809 L34.339,7.809 C34.2096632,7.80387728 34.0840656,7.85301227 33.9925389,7.94453893 C33.9010123,8.03606559 33.8518773,8.16166317 33.857,8.291 L33.857,9.255 C33.8518773,9.38433683 33.9010123,9.50993441 33.9925389,9.60146107 C34.0840656,9.69298773 34.2096632,9.74212272 34.339,9.737 L35.303,9.737 C35.4323368,9.74212272 35.5579344,9.69298773 35.6494611,9.60146107 C35.7409877,9.50993441 35.7901227,9.38433683 35.785,9.255 L35.785,9.251 Z M35.785,5.394 L35.785,4.43 C35.7901227,4.30066317 35.7409877,4.17506559 35.6494611,4.08353893 C35.5579344,3.99201227 35.4323368,3.94287728 35.303,3.948 L34.339,3.948 C34.2096632,3.94287728 34.0840656,3.99201227 33.9925389,4.08353893 C33.9010123,4.17506559 33.8518773,4.30066317 33.857,4.43 L33.857,5.391 C33.8518773,5.52033683 33.9010123,5.64593441 33.9925389,5.73746107 C34.0840656,5.82898773 34.2096632,5.87812272 34.339,5.873 L35.303,5.873 C35.4323368,5.87812272 35.5579344,5.82898773 35.6494611,5.73746107 C35.7409877,5.64593441 35.7901227,5.52033683 35.785,5.391 L35.785,5.394 Z M43.5,24.68 L43.5,21.791 C43.5051227,21.6616632 43.4559877,21.5360656 43.3644611,21.4445389 C43.2729344,21.3530123 43.1473368,21.3038773 43.018,21.309 L38.2,21.309 C38.0706632,21.3038773 37.9450656,21.3530123 37.8535389,21.4445389 C37.7620123,21.5360656 37.7128773,21.6616632 37.718,21.791 L37.718,24.684 C37.7128773,24.8133368 37.7620123,24.9389344 37.8535389,25.0304611 C37.9450656,25.1219877 38.0706632,25.1711227 38.2,25.166 L43.021,25.166 C43.1503368,25.1711227 43.2759344,25.1219877 43.3674611,25.0304611 C43.4589877,24.9389344 43.5081227,24.8133368 43.503,24.684 L43.5,24.68 Z M43.5,16.966 L43.5,16.002 C43.5051227,15.8726632 43.4559877,15.7470656 43.3644611,15.6555389 C43.2729344,15.5640123 43.1473368,15.5148773 43.018,15.52 L42.054,15.52 C41.9246632,15.5148773 41.7990656,15.5640123 41.7075389,15.6555389 C41.6160123,15.7470656 41.5668773,15.8726632 41.572,16.002 L41.572,16.966 C41.5668773,17.0953368 41.6160123,17.2209344 41.7075389,17.3124611 C41.7990656,17.4039877 41.9246632,17.4531227 42.054,17.448 L43.018,17.448 C43.1473368,17.4531227 43.2729344,17.4039877 43.3644611,17.3124611 C43.4559877,17.2209344 43.5051227,17.0953368 43.5,16.966 L43.5,16.966 Z M43.5,13.109 L43.5,12.145 C43.5051227,12.0156632 43.4559877,11.8900656 43.3644611,11.7985389 C43.2729344,11.7070123 43.1473368,11.6578773 43.018,11.663 L42.054,11.663 C41.9246632,11.6578773 41.7990656,11.7070123 41.7075389,11.7985389 C41.6160123,11.8900656 41.5668773,12.0156632 41.572,12.145 L41.572,13.109 C41.5668773,13.2383368 41.6160123,13.3639344 41.7075389,13.4554611 C41.7990656,13.5469877 41.9246632,13.5961227 42.054,13.591 L43.018,13.591 C43.1473368,13.5961227 43.2729344,13.5469877 43.3644611,13.4554611 C43.4559877,13.3639344 43.5051227,13.2383368 43.5,13.109 L43.5,13.109 Z M43.5,9.252 L43.5,8.291 C43.5051227,8.16166317 43.4559877,8.03606559 43.3644611,7.94453893 C43.2729344,7.85301227 43.1473368,7.80387728 43.018,7.809 L42.054,7.809 C41.9246632,7.80387728 41.7990656,7.85301227 41.7075389,7.94453893 C41.6160123,8.03606559 41.5668773,8.16166317 41.572,8.291 L41.572,9.255 C41.5668773,9.38433683 41.6160123,9.50993441 41.7075389,9.60146107 C41.7990656,9.69298773 41.9246632,9.74212272 42.054,9.737 L43.018,9.737 C43.1473368,9.74212272 43.2729344,9.69298773 43.3644611,9.60146107 C43.4559877,9.50993441 43.5051227,9.38433683 43.5,9.255 L43.5,9.252 Z M43.5,5.395 L43.5,4.43 C43.5051227,4.30066317 43.4559877,4.17506559 43.3644611,4.08353893 C43.2729344,3.99201227 43.1473368,3.94287728 43.018,3.948 L42.054,3.948 C41.9246632,3.94287728 41.7990656,3.99201227 41.7075389,4.08353893 C41.6160123,4.17506559 41.5668773,4.30066317 41.572,4.43 L41.572,5.391 C41.5668773,5.52033683 41.6160123,5.64593441 41.7075389,5.73746107 C41.7990656,5.82898773 41.9246632,5.87812272 42.054,5.873 L43.018,5.873 C43.1473368,5.87812272 43.2729344,5.82898773 43.3644611,5.73746107 C43.4559877,5.64593441 43.5051227,5.52033683 43.5,5.391 L43.5,5.395 Z M47.357,20.824 L47.357,19.86 C47.3621227,19.7306632 47.3129877,19.6050656 47.2214611,19.5135389 C47.1299344,19.4220123 47.0043368,19.3728773 46.875,19.378 L45.911,19.378 C45.7816632,19.3728773 45.6560656,19.4220123 45.5645389,19.5135389 C45.4730123,19.6050656 45.4238773,19.7306632 45.429,19.86 L45.429,20.824 C45.4238773,20.9533368 45.4730123,21.0789344 45.5645389,21.1704611 C45.6560656,21.2619877 45.7816632,21.3111227 45.911,21.306 L46.875,21.306 C47.0043368,21.3111227 47.1299344,21.2619877 47.2214611,21.1704611 C47.3129877,21.0789344 47.3621227,20.9533368 47.357,20.824 L47.357,20.824 Z M47.357,16.967 L47.357,16.003 C47.3621227,15.8736632 47.3129877,15.7480656 47.2214611,15.6565389 C47.1299344,15.5650123 47.0043368,15.5158773 46.875,15.521 L45.911,15.521 C45.7816632,15.5158773 45.6560656,15.5650123 45.5645389,15.6565389 C45.4730123,15.7480656 45.4238773,15.8736632 45.429,16.003 L45.429,16.967 C45.4238773,17.0963368 45.4730123,17.2219344 45.5645389,17.3134611 C45.6560656,17.4049877 45.7816632,17.4541227 45.911,17.449 L46.875,17.449 C47.0043368,17.4541227 47.1299344,17.4049877 47.2214611,17.3134611 C47.3129877,17.2219344 47.3621227,17.0963368 47.357,16.967 L47.357,16.967 Z M47.357,13.11 L47.357,12.146 C47.3621227,12.0166632 47.3129877,11.8910656 47.2214611,11.7995389 C47.1299344,11.7080123 47.0043368,11.6588773 46.875,11.664 L45.911,11.664 C45.7816632,11.6588773 45.6560656,11.7080123 45.5645389,11.7995389 C45.4730123,11.8910656 45.4238773,12.0166632 45.429,12.146 L45.429,13.11 C45.4238773,13.2393368 45.4730123,13.3649344 45.5645389,13.4564611 C45.6560656,13.5479877 45.7816632,13.5971227 45.911,13.592 L46.875,13.592 C47.0043368,13.5971227 47.1299344,13.5479877 47.2214611,13.4564611 C47.3129877,13.3649344 47.3621227,13.2393368 47.357,13.11 L47.357,13.11 Z M47.357,9.253 L47.357,8.291 C47.3621227,8.16166317 47.3129877,8.03606559 47.2214611,7.94453893 C47.1299344,7.85301227 47.0043368,7.80387728 46.875,7.809 L45.911,7.809 C45.7816632,7.80387728 45.6560656,7.85301227 45.5645389,7.94453893 C45.4730123,8.03606559 45.4238773,8.16166317 45.429,8.291 L45.429,9.255 C45.4238773,9.38433683 45.4730123,9.50993441 45.5645389,9.60146107 C45.6560656,9.69298773 45.7816632,9.74212272 45.911,9.737 L46.875,9.737 C47.0043368,9.74212272 47.1299344,9.69298773 47.2214611,9.60146107 C47.3129877,9.50993441 47.3621227,9.38433683 47.357,9.255 L47.357,9.253 Z M47.357,5.396 L47.357,4.43 C47.3621227,4.30066317 47.3129877,4.17506559 47.2214611,4.08353893 C47.1299344,3.99201227 47.0043368,3.94287728 46.875,3.948 L45.911,3.948 C45.7816632,3.94287728 45.6560656,3.99201227 45.5645389,4.08353893 C45.4730123,4.17506559 45.4238773,4.30066317 45.429,4.43 L45.429,5.391 C45.4238773,5.52033683 45.4730123,5.64593441 45.5645389,5.73746107 C45.6560656,5.82898773 45.7816632,5.87812272 45.911,5.873 L46.875,5.873 C47.0043368,5.87812272 47.1299344,5.82898773 47.2214611,5.73746107 C47.3129877,5.64593441 47.3621227,5.52033683 47.357,5.391 L47.357,5.396 Z" id="building-2"></path>
                        </g>
                    </g>
                </g>
            </g>
        </g>
    </g>
</svg>