<svg xmlns="http://www.w3.org/2000/svg" width="21" height="22" viewBox="0 0 21 22">
    <path fill="#797979" fill-rule="nonzero" d="M8.154 17.844V7.778a.44.44 0 0 0-.458-.458h-.915a.44.44 0 0 0-.458.458v10.066a.441.441 0 0 0 .458.458h.915a.441.441 0 0 0 .458-.458zm3.66 0V7.778a.44.44 0 0 0-.458-.458h-.915a.44.44 0 0 0-.458.458v10.066a.441.441 0 0 0 .458.458h.915a.441.441 0 0 0 .458-.458zm3.66 0V7.778a.44.44 0 0 0-.458-.458h-.915a.44.44 0 0 0-.458.458v10.066a.441.441 0 0 0 .458.458h.915a.441.441 0 0 0 .458-.458zM7.696 3.66h6.405l-.686-1.673a.4.4 0 0 0-.243-.157H8.64a.4.4 0 0 0-.243.157L7.696 3.66zm13.268.458v.915a.441.441 0 0 1-.458.458h-1.373v13.554c.017.74-.22 1.465-.672 2.052a1.993 1.993 0 0 1-1.616.865h-11.9a2.013 2.013 0 0 1-1.616-.836 3.129 3.129 0 0 1-.672-2.023V5.49H1.284a.441.441 0 0 1-.458-.458v-.915a.441.441 0 0 1 .458-.458h4.418l1-2.388c.16-.372.429-.686.772-.9.33-.235.725-.364 1.13-.372h4.575c.405.008.8.137 1.13.372.343.214.613.528.772.9l1 2.388h4.418a.441.441 0 0 1 .458.458l.007.001z"/>
</svg>
