<svg xmlns="http://www.w3.org/2000/svg" width="23" height="22" viewBox="0 0 23 22">
    <path fill="#797979" fill-rule="nonzero" d="M17.569 19.326a.891.891 0 1 0-.261.618.844.844 0 0 0 .261-.618zm3.514 0a.891.891 0 1 0-.261.618.844.844 0 0 0 .261-.618zm1.757-3.075v4.392a1.312 1.312 0 0 1-1.318 1.318h-20.2A1.312 1.312 0 0 1 0 20.644v-4.392a1.312 1.312 0 0 1 1.318-1.318h5.861c.189.508.526.948.968 1.263.439.325.971.498 1.517.494h3.514a2.518 2.518 0 0 0 1.517-.494 2.71 2.71 0 0 0 .968-1.263h5.861a1.312 1.312 0 0 1 1.318 1.318l-.002-.001zm-4.461-8.894a.821.821 0 0 1-.81.549h-3.514v6.149a.891.891 0 0 1-.878.878H9.663a.891.891 0 0 1-.878-.878V7.906H5.271a.821.821 0 0 1-.81-.549.78.78 0 0 1 .192-.947L10.8.261a.862.862 0 0 1 1.235 0l6.149 6.149a.78.78 0 0 1 .195.947z"/>
</svg>
