<svg xmlns="http://www.w3.org/2000/svg" width="17" height="16" viewBox="0 0 17 16">
    <path fill="#F61F00" fill-rule="nonzero" d="M9.24 12.968v-1.713a.288.288 0 0 0-.086-.212.277.277 0 0 0-.2-.086H7.221a.277.277 0 0 0-.2.086.288.288 0 0 0-.086.212v1.713a.288.288 0 0 0 .079.212.277.277 0 0 0 .2.086h1.738a.277.277 0 0 0 .2-.086.288.288 0 0 0 .088-.212zm-.018-3.372l.162-4.137a.2.2 0 0 0-.09-.171.348.348 0 0 0-.216-.1H7.095a.348.348 0 0 0-.216.1.216.216 0 0 0-.09.189l.153 4.12c.001.062.035.12.09.149.065.04.14.061.216.059h1.666a.366.366 0 0 0 .212-.059.2.2 0 0 0 .096-.15zm-.126-8.423l6.918 12.7c.21.351.204.792-.018 1.136-.206.347-.579.56-.982.564H1.163c-.2 0-.398-.052-.572-.153a1.133 1.133 0 0 1-.419-.415 1.075 1.075 0 0 1-.019-1.132l6.924-12.7a1.151 1.151 0 0 1 2.019 0z"/>
</svg>
