
<svg width="16px" height="16px" viewBox="0 0 16 16" version="1.1" xmlns="http://www.w3.org/2000/svg" xmlns:xlink="http://www.w3.org/1999/xlink">
    <!-- Generator: Sketch 46.2 (44496) - http://www.bohemiancoding.com/sketch -->
    <desc>Created with Sketch.</desc>
    <defs>
        <path d="M223.734624,23.0754985 C224.611775,21.9112958 225.13958,20.4465723 225.13958,18.8547377 C225.13958,15.0750776 222.192455,12 218.570211,12 C214.947125,12 212,15.0750776 212,18.8547377 C212,22.6335561 214.947125,25.7086337 218.570211,25.7086337 C219.989478,25.7086337 221.301836,25.230494 222.37765,24.4291051 L225.525122,27.7137897 C225.708634,27.9048772 225.948545,28 226.189299,28 C226.42921,28 226.669122,27.9048772 226.852633,27.7137897 C227.218814,27.3316147 227.218814,26.7120535 226.852633,26.3290367 L223.734624,23.0754985 Z M218.570211,13.9588573 C221.157889,13.9588573 223.262377,16.1551008 223.262377,18.8547377 C223.262377,21.5543747 221.157889,23.7497764 218.570211,23.7497764 C215.982533,23.7497764 213.876361,21.5543747 213.876361,18.8547377 C213.876361,16.1551008 215.982533,13.9588573 218.570211,13.9588573 Z" id="path-1"></path>
    </defs>
    <g id="01-Dashboard" stroke="none" stroke-width="1" fill="none" fill-rule="evenodd">
        <g id="01-2-Search-by" transform="translate(-1100.000000, -366.000000)">
            <g id="Bg">
                <g id="Search" transform="translate(888.000000, 354.000000)">
                    <g id="search-icon">
                        <use fill-opacity="0.61" fill="#989898" fill-rule="evenodd" xlink:href="#path-1"></use>
                        <path stroke="#FFFFFF" stroke-width="0.6" d="M223.49502,22.8949723 L223.341442,23.098809 L226.636038,26.5366095 C226.891058,26.8033545 226.891058,27.2400584 226.636017,27.5062388 C226.514543,27.6327279 226.355198,27.7 226.189299,27.7 C226.022627,27.7 225.863267,27.6327839 225.7415,27.5059904 L222.594258,24.2215455 L222.410932,24.0302268 L222.198434,24.188519 C221.139187,24.9775674 219.883562,25.4086337 218.570211,25.4086337 C215.115951,25.4086337 212.3,22.4708887 212.3,18.8547377 C212.3,15.2378699 215.115832,12.3 218.570211,12.3 C222.023872,12.3 224.83958,15.2380003 224.83958,18.8547377 C224.83958,20.3369742 224.360497,21.7462627 223.49502,22.8949723 Z M218.570211,13.6588573 C221.32637,13.6588573 223.562377,15.9920703 223.562377,18.8547377 C223.562377,21.7172601 221.326507,24.0497764 218.570211,24.0497764 C215.81363,24.0497764 213.576361,21.7169575 213.576361,18.8547377 C213.576361,15.9923729 215.813767,13.6588573 218.570211,13.6588573 Z"></path>
                    </g>
                </g>
            </g>
        </g>
    </g>
</svg>